# xmcd
#
# Track frame offsets:
#	150
#	25920
#	45538
#	55588
#	73667
#	89430
#	96609
#	125346
#	140920
#	159262
#	172283
#	192065
#	220177
#	240460
#	253812
#	285950
#	307485
#
# Disc length: 4346 seconds
#
# Revision: 0
# Processed by: cddbd v1.5.2PL0 Copyright (c) Steve Scherf et al.
# Submitted via: EZCDAudioConverter 2.1.7.1
#
DISCID=fe10f811
DTITLE=Link Wray - 3-Track Shack 2/2
DYEAR=1900
DGENRE=
TTITLE0=On The Run
TTITLE1=Son Of A Simple Man
TTITLE2=Precious Jewel
TTITLE3=Days Before Custer
TTITLE4=Gandy Dancer
TTITLE5=Beans And Fatback
TTITLE6=I'm So Glad, I'm So Proud
TTITLE7=Shawnee Tribe
TTITLE8=Hobo Man
TTITLE9=Georgia Pines
TTITLE10=Alabama Electric Circus
TTITLE11=Water Boy
TTITLE12=From Tulsa To North Carolina
TTITLE13=Right Or Wrong (You Lose)
TTITLE14=In The Pines
TTITLE15=Take My Hand (Precious Lord)
TTITLE16=I'm So Glad, I'm So Proud [45 Edit]
EXTD=
EXTT0=
EXTT1=
EXTT2=
EXTT3=
EXTT4=
EXTT5=
EXTT6=
EXTT7=
EXTT8=
EXTT9=
EXTT10=
EXTT11=
EXTT12=
EXTT13=
EXTT14=
EXTT15=
EXTT16=
PLAYORDER=
